<!-- icon666.com - MILLIONS vector ICONS FREE --><svg version="1.1" id="Capa_1" xmlns="http://www.w3.org/2000/svg" xmlns:xlink="http://www.w3.org/1999/xlink" x="0px" y="0px" viewBox="0 0 302.298 302.298" style="enable-background:new 0 0 302.298 302.298;" xml:space="preserve"><path style="fill:#000002;" d="M287.298,144.149c8.284,0,15-6.716,15-15s-6.716-15-15-15h-36.483v-12h36.483c8.284,0,15-6.716,15-15 s-6.716-15-15-15h-39.335c-3.575-6-9.736-9-16.735-9h-1.412V25.768c0-8.284-6.716-15-15-15s-15,6.716-15,15v37.381h-13V25.768 c0-8.284-6.716-15-15-15s-15,6.716-15,15v37.381h-12V25.768c0-8.284-6.716-15-15-15s-15,6.716-15,15v37.381h-13V25.768 c0-8.284-6.716-15-15-15s-15,6.716-15,15v37.381h-0.489c-7,0-13.161,3-16.735,9H15c-8.284,0-15,6.716-15,15s6.716,15,15,15h35.815 v12H15c-8.284,0-15,6.716-15,15s6.716,15,15,15h35.815v13H15c-8.284,0-15,6.716-15,15c0,8.284,6.716,15,15,15h35.815v13H15 c-8.284,0-15,6.716-15,15c0,8.284,6.716,15,15,15h39.59c3.574,5,9.736,9,16.736,9h0.489v37.381c0,8.284,6.716,15,15,15 s15-6.716,15-15v-37.381h13v37.381c0,8.284,6.716,15,15,15s15-6.716,15-15v-37.381h12v37.381c0,8.284,6.716,15,15,15s15-6.716,15-15 v-37.381h13v37.381c0,8.284,6.716,15,15,15s15-6.716,15-15v-37.381h1.412c7,0,13.161-4,16.736-9h39.335c8.284,0,15-6.716,15-15 c0-8.284-6.716-15-15-15h-36.483v-13h36.483c8.284,0,15-6.716,15-15c0-8.284-6.716-15-15-15h-36.483v-13H287.298z M206.815,200.149 h-111v-98h111V200.149z"></path></svg>