<!-- icon666.com - MILLIONS vector ICONS FREE --><svg version="1.1" id="Layer_1" xmlns="http://www.w3.org/2000/svg" xmlns:xlink="http://www.w3.org/1999/xlink" x="0px" y="0px" viewBox="0 0 512 512" style="enable-background:new 0 0 512 512;" xml:space="preserve"><g><g><path d="M294.906,411.797H50.078C22.464,411.797,0,434.261,0,461.875v33.386c0,9.221,7.477,16.693,16.693,16.693h311.599 c9.216,0,16.693-7.472,16.693-16.693v-33.386C344.985,434.261,322.521,411.797,294.906,411.797z"></path></g></g><g><g><path d="M511.693,300.755C505.618,160.557,385.91,0.041,339.82,0.041c-7.444,0-14.302,3.331-19.313,9.385 c-29.484,35.608,4.369,242.676,27.18,362.944c8.023,42.278,36.486,71.838,70.509,75.66c-0.004,0.044-0.009,0.089-0.013,0.135 c0.013-0.001,0.027-0.001,0.04-0.002c7.63-85.461-9.815-168.826-30.607-247.038c-2.369-8.909,2.933-18.053,11.844-20.421 c8.911-2.375,18.053,2.933,20.421,11.844c20.961,78.84,38.626,162.932,32.294,250.362 C485.008,428.838,515.399,386.199,511.693,300.755z"></path></g></g><g><g><path d="M417.852,447.642c-0.04,0.108-0.08,0.216-0.127,0.322c0.158,0.019,0.314,0.047,0.472,0.065 c-1.3,14.623-3.246,29.3-6.126,44.032c-1.772,9.048,4.13,17.812,13.172,19.584c1.087,0.211,2.162,0.315,3.227,0.315 c7.813,0,14.802-5.532,16.356-13.498c3.64-18.612,5.959-37.086,7.293-55.422C451.683,443.153,442.36,450.469,417.852,447.642z"></path></g></g><g><g><path d="M228.135,316.769v-21.822c0-9.221-7.477-16.693-16.693-16.693h-77.9c-9.216,0-16.693,7.472-16.693,16.693v21.822 c-32.326,9.551-58.17,32.322-72.12,61.642h255.526C286.307,349.089,260.461,326.318,228.135,316.769z"></path></g></g></svg>